<svg id="COLOR_LINE" height="512" viewBox="0 0 74 74" width="512" xmlns="http://www.w3.org/2000/svg" data-name="COLOR LINE"><path d="m52.633 45.29h10.037a0 0 0 0 1 0 0v23.05a5.018 5.018 0 0 1 -5.018 5.018 5.018 5.018 0 0 1 -5.018-5.018v-23.05a0 0 0 0 1 -.001 0z" fill="#fcd462" transform="matrix(.707 -.707 .707 .707 -25.063 58.141)"/><path d="m66.913 62.243-13.845-13.843c-.559.625-1.111 1.257-1.724 1.827l13.229 13.226a5.022 5.022 0 0 1 0 7.1 1.217 1.217 0 0 1 -.17.15 5.02 5.02 0 0 0 2.51-8.46z" fill="#f7be56"/><g fill="#323c6b"><path d="m71.782 64.188a.5.5 0 0 1 -.484-.376 7.492 7.492 0 0 0 -1.955-3.429l-1.707-1.707a.5.5 0 1 1 .707-.707l1.707 1.707a8.5 8.5 0 0 1 2.217 3.887.5.5 0 0 1 -.36.609.493.493 0 0 1 -.125.016z"/><path d="m71.883 67.778a.586.586 0 0 1 -.1-.01.5.5 0 0 1 -.389-.591c.042-.2.074-.4.1-.608a.5.5 0 1 1 .994.112c-.027.236-.064.468-.111.7a.5.5 0 0 1 -.494.397z"/><path d="m51.766 12.584a.5.5 0 0 1 -.406-.206l-.3-.409a.5.5 0 0 1 .8-.6l.313.423a.5.5 0 0 1 -.4.794z"/><path d="m57.075 25.686a.5.5 0 0 1 -.494-.428 28.972 28.972 0 0 0 -3.41-10.047.5.5 0 0 1 .872-.489 29.959 29.959 0 0 1 3.527 10.392.5.5 0 0 1 -.423.567.436.436 0 0 1 -.072.005z"/><path d="m64.027 71.217a5.478 5.478 0 0 1 -3.9-1.616l-16.3-16.3a.5.5 0 0 1 0-.707l7.1-7.1a.5.5 0 0 1 .353-.146.5.5 0 0 1 .354.146l16.3 16.3a5.518 5.518 0 0 1 -3.9 9.42zm-19.141-18.268 15.946 15.945a4.518 4.518 0 0 0 6.39-6.39l-15.946-15.945z"/></g><path d="m50.865 41.285 3.646 3.646a2.245 2.245 0 0 1 .3 3.132l-8.421 8.421a2.245 2.245 0 0 1 -3.132-.3l-3.646-3.646" fill="#d5d6db"/><path d="m45.1 57.49a3.149 3.149 0 0 1 -2.2-.953l-3.646-3.646a.5.5 0 1 1 .707-.707l3.646 3.646a1.757 1.757 0 0 0 2.425.3l8.421-8.422a1.755 1.755 0 0 0 -.3-2.424l-3.646-3.646a.5.5 0 0 1 .707-.707l3.646 3.646a2.743 2.743 0 0 1 .3 3.839l-8.422 8.421a2.3 2.3 0 0 1 -1.638.653z" fill="#323c6b"/><path d="m46.527 10.757a26.474 26.474 0 1 0 0 37.44 26.462 26.462 0 0 0 0-37.44zm-3.795 33.643a21.112 21.112 0 1 1 0-29.851 21.149 21.149 0 0 1 0 29.851z" fill="#d5d6db"/><path d="m46.53 11.1a26.439 26.439 0 0 0 -36.11-1.23 26.471 26.471 0 0 1 33.76 40.5c-.42.42-.85.83-1.3 1.21a25.483 25.483 0 0 0 3.65-3.04 26.49 26.49 0 0 0 0-37.44z" fill="#84879c"/><path d="m42.73 44.4a21.05 21.05 0 0 1 -16.48 6.11c-.71-.05-1.42-.14-2.12-.26a20.6 20.6 0 0 1 -3-.76 16.386 16.386 0 0 1 -1.91-.74 18.725 18.725 0 0 1 -2.72-1.45 19.737 19.737 0 0 1 -2.73-2.06q-.465-.405-.9-.84a21.1 21.1 0 0 1 16.48-35.97 21.7 21.7 0 0 1 3.39.52 20.793 20.793 0 0 1 2.93.94 19.38 19.38 0 0 1 1.86.85 20.33 20.33 0 0 1 4.3 2.96c.31.28.61.56.9.85a21.13 21.13 0 0 1 0 29.85z" fill="#89c5cd"/><path d="m11.141 27.41a.757.757 0 0 1 -1.021-.84 10.044 10.044 0 0 1 .551-2 .756.756 0 1 1 1.434.482 8.571 8.571 0 0 0 -.5 1.788.759.759 0 0 1 -.464.57z" fill="#fff"/><path d="m13.051 22.383a.757.757 0 0 1 -.94-1.07 19.954 19.954 0 0 1 9.315-8.551.743.743 0 0 1 1 .377.755.755 0 0 1 -.377 1 18.459 18.459 0 0 0 -8.615 7.906.752.752 0 0 1 -.383.338z" fill="#fff"/><path d="m46.527 10.757a26.474 26.474 0 1 0 0 37.44 26.462 26.462 0 0 0 0-37.44z" fill="none" stroke="#323c6b" stroke-linecap="round" stroke-linejoin="round"/><g fill="#6eaaad" opacity=".4"><path d="m32.74 8.95-16.24 38.35a19.737 19.737 0 0 1 -2.73-2.06l15.58-36.81a21.7 21.7 0 0 1 3.39.52z"/><path d="m37.53 10.74-16.4 38.75a16.386 16.386 0 0 1 -1.91-.74l16.45-38.86a19.38 19.38 0 0 1 1.86.85z"/><path d="m41.83 13.7-15.58 36.81c-.71-.05-1.42-.14-2.12-.26l16.04-37.89a21.139 21.139 0 0 1 1.66 1.34z"/></g><path d="m27.824 51.068q-.8 0-1.611-.06c-.7-.049-1.425-.138-2.168-.265a21.335 21.335 0 0 1 -3.074-.779 16.968 16.968 0 0 1 -1.963-.761 19.119 19.119 0 0 1 -2.777-1.481 20.368 20.368 0 0 1 -2.8-2.111c-.311-.272-.62-.56-.917-.858a21.6 21.6 0 0 1 16.873-36.821 22.1 22.1 0 0 1 3.467.531 21.372 21.372 0 0 1 3 .964 19.768 19.768 0 0 1 1.905.87 21.813 21.813 0 0 1 2.7 1.657 21.384 21.384 0 0 1 1.7 1.376c.315.285.622.57.917.866a21.631 21.631 0 0 1 0 30.557 21.6 21.6 0 0 1 -15.252 6.315zm-.044-42.2a20.6 20.6 0 0 0 -14.556 35.178q.423.425.875.817a19.265 19.265 0 0 0 2.668 2.014 18.157 18.157 0 0 0 2.649 1.413 15.922 15.922 0 0 0 1.868.725 20.369 20.369 0 0 0 2.933.743c.708.121 1.405.206 2.068.253a20.594 20.594 0 0 0 16.091-35.111c-.284-.284-.577-.558-.881-.832a20.519 20.519 0 0 0 -1.622-1.309 20.912 20.912 0 0 0 -2.573-1.574 18.653 18.653 0 0 0 -1.816-.83 20.3 20.3 0 0 0 -2.862-.919 21.148 21.148 0 0 0 -3.308-.507q-.769-.057-1.534-.057z" fill="#323c6b"/></svg>